<?xml version="1.0" encoding="UTF-8"?><!DOCTYPE svg PUBLIC "-//W3C//DTD SVG 1.1//EN" "http://www.w3.org/Graphics/SVG/1.1/DTD/svg11.dtd"><svg xmlns="http://www.w3.org/2000/svg"><defs><style>.cls-1{fill:none;stroke:#fff;stroke-miterlimit:10}</style><style>.cls-1{fill:none;stroke:#fff;stroke-miterlimit:10}</style></defs><symbol id="NeutrafaceText-Bold"/><symbol id="NeutrafaceText-BoldItalic"/><symbol id="NeutrafaceText-Book"/><symbol id="NeutrafaceText-BookItalic"/><symbol id="icon_bench" viewBox="0 0 50 25"><title>icon_bench</title><path d="M6.62 6.58h36.76v4.41H6.62zM4.41 6.57v18.38H0V6.57zM50 6.57v18.38h-4.41V6.57zM6.62-.04h36.76v4.41H6.62z"/><path d="M0 13.19h50v4.41H0z"/></symbol><symbol id="icon_boat-launch" viewBox="-280 384 50 25"><path d="M-261.2 397.8v.6l-18.8-4.6v-2.5l19.1 4.7c-.2.5-.4 1.2-.3 1.8zm25.3 4.2l-.3 2.5-16.9-4.1c.5-.7.7-1.5.7-2.4l16.5 4zm1.2-6.8l-2.8 4.8-15.1-3.7c-.6-1.8-2.3-3-4.2-3-1.1 0-2.2.4-3.1 1.2l-14.4-3.6s-3.5-3.2-3.8-6.6l10.9 2.8 5-3.1 2.8 1.3-3.8 2.3 28.5 7.6zm-22.1-.5c1.7 0 3 1.4 3 3.1 0 1.7-1.3 3.1-3 3.1s-3-1.4-3-3.1c0-1.7 1.4-3.1 3-3.1zM-230 409h-50v-11.9l50 11.9z"/></symbol><symbol id="icon_marker-eyedrop" viewBox="0 0 20 30"><title>icon_map-marker</title><path d="M10 1a8.94 8.94 0 0 0-9 8.89C1 19.26 10 29 10 29s9-9.76 9-19.11A8.94 8.94 0 0 0 10 1zm0 14.4a5.51 5.51 0 1 1 5.58-5.51A5.55 5.55 0 0 1 10 15.4z"/><path class="cls-1" d="M10 1a8.94 8.94 0 0 0-9 8.89C1 19.26 10 29 10 29s9-9.76 9-19.11A8.94 8.94 0 0 0 10 1zm0 14.4a5.51 5.51 0 1 1 5.58-5.51A5.55 5.55 0 0 1 10 15.4z"/></symbol><symbol id="icon_marker-pushpin" viewBox="0 0 20 32"><title>icon_marker-pushpin</title><path d="M18.6 19.11h-7.37l-.34 6.48L10 29l-.89-3.42-.34-6.47H1.4a.36.36 0 0 1-.4-.43l.69-2.78a.55.55 0 0 1 .31-.38l3.54-1.35a.53.53 0 0 0 .36-.45l.52-7.82a.52.52 0 0 0-.37-.51l-1.52-.56a.56.56 0 0 1-.33-.33L3.11 1.45A.36.36 0 0 1 3.5 1h13a.36.36 0 0 1 .38.45L15.8 4.5a.56.56 0 0 1-.34.33l-1.52.56a.52.52 0 0 0-.37.51l.5 7.82a.53.53 0 0 0 .36.45L18 15.52a.55.55 0 0 1 .35.37l.65 2.79a.36.36 0 0 1-.4.43z"/><path class="cls-1" d="M18.6 19.11h-7.37l-.34 6.48L10 29l-.89-3.42-.34-6.47H1.4a.36.36 0 0 1-.4-.43l.69-2.78a.55.55 0 0 1 .31-.38l3.54-1.35a.53.53 0 0 0 .36-.45l.52-7.82a.52.52 0 0 0-.37-.51l-1.52-.56a.56.56 0 0 1-.33-.33L3.11 1.45A.36.36 0 0 1 3.5 1h13a.36.36 0 0 1 .38.45L15.8 4.5a.56.56 0 0 1-.34.33l-1.52.56a.52.52 0 0 0-.37.51l.5 7.82a.53.53 0 0 0 .36.45L18 15.52a.55.55 0 0 1 .35.37l.65 2.79a.36.36 0 0 1-.4.43z"/></symbol><symbol id="icon_picnic-table" viewBox="0 0 50 25"><title>icon_picnic-table</title><path d="M6.62 0h36.76v4.41H6.62zM0 11.76h50v4.41H0z"/><path d="M40.26 25l-7.8-25h5.04l7.8 25h-5.04zM9.74 25l7.8-25H12.5L4.71 25h5.03z"/></symbol></svg>