<?xml version="1.0" encoding="UTF-8"?><!DOCTYPE svg PUBLIC "-//W3C//DTD SVG 1.1//EN" "http://www.w3.org/Graphics/SVG/1.1/DTD/svg11.dtd"><svg xmlns="http://www.w3.org/2000/svg"><defs><style>.cls-1{fill:none;stroke:#fff;stroke-miterlimit:10}</style><style>.cls-1{fill:none;stroke:#fff;stroke-miterlimit:10}</style></defs><symbol id="NeutrafaceText-Bold"/><symbol id="NeutrafaceText-BoldItalic"/><symbol id="NeutrafaceText-Book"/><symbol id="NeutrafaceText-BookItalic"/><symbol id="icon_marker-eyedrop" viewBox="0 0 20 30"><title>icon_map-marker</title><path d="M10 1a8.94 8.94 0 0 0-9 8.89C1 19.26 10 29 10 29s9-9.76 9-19.11A8.94 8.94 0 0 0 10 1zm0 14.4a5.51 5.51 0 1 1 5.58-5.51A5.55 5.55 0 0 1 10 15.4z"/><path class="cls-1" d="M10 1a8.94 8.94 0 0 0-9 8.89C1 19.26 10 29 10 29s9-9.76 9-19.11A8.94 8.94 0 0 0 10 1zm0 14.4a5.51 5.51 0 1 1 5.58-5.51A5.55 5.55 0 0 1 10 15.4z"/></symbol><symbol id="icon_marker-pushpin" viewBox="0 0 20 32"><title>icon_marker-pushpin</title><path d="M18.6 19.11h-7.37l-.34 6.48L10 29l-.89-3.42-.34-6.47H1.4a.36.36 0 0 1-.4-.43l.69-2.78a.55.55 0 0 1 .31-.38l3.54-1.35a.53.53 0 0 0 .36-.45l.52-7.82a.52.52 0 0 0-.37-.51l-1.52-.56a.56.56 0 0 1-.33-.33L3.11 1.45A.36.36 0 0 1 3.5 1h13a.36.36 0 0 1 .38.45L15.8 4.5a.56.56 0 0 1-.34.33l-1.52.56a.52.52 0 0 0-.37.51l.5 7.82a.53.53 0 0 0 .36.45L18 15.52a.55.55 0 0 1 .35.37l.65 2.79a.36.36 0 0 1-.4.43z"/><path class="cls-1" d="M18.6 19.11h-7.37l-.34 6.48L10 29l-.89-3.42-.34-6.47H1.4a.36.36 0 0 1-.4-.43l.69-2.78a.55.55 0 0 1 .31-.38l3.54-1.35a.53.53 0 0 0 .36-.45l.52-7.82a.52.52 0 0 0-.37-.51l-1.52-.56a.56.56 0 0 1-.33-.33L3.11 1.45A.36.36 0 0 1 3.5 1h13a.36.36 0 0 1 .38.45L15.8 4.5a.56.56 0 0 1-.34.33l-1.52.56a.52.52 0 0 0-.37.51l.5 7.82a.53.53 0 0 0 .36.45L18 15.52a.55.55 0 0 1 .35.37l.65 2.79a.36.36 0 0 1-.4.43z"/></symbol></svg>